<mxfile host="app.diagrams.net" modified="2024-02-27T18:48:31.866Z" agent="Mozilla/5.0 (X11; Linux x86_64) AppleWebKit/537.36 (KHTML, like Gecko) Chrome/122.0.0.0 Safari/537.36" etag="MB2lfJViZV0mQl_HX6Hc" version="23.1.7" type="github">
  <diagram name="Page-1" id="FsFMNKamjnLMCyS4MaGt">
    <mxGraphModel dx="2796" dy="1133" grid="1" gridSize="10" guides="1" tooltips="1" connect="1" arrows="1" fold="1" page="1" pageScale="1" pageWidth="850" pageHeight="1100" math="0" shadow="0">
      <root>
        <mxCell id="0" />
        <mxCell id="1" parent="0" />
        <mxCell id="_9m9D5vIo8r4-Emz0mx3-10" value="" style="endArrow=none;html=1;rounded=0;exitX=0;exitY=0.5;exitDx=0;exitDy=0;entryX=1;entryY=0.5;entryDx=0;entryDy=0;" edge="1" parent="1" source="_9m9D5vIo8r4-Emz0mx3-5" target="_9m9D5vIo8r4-Emz0mx3-14">
          <mxGeometry width="50" height="50" relative="1" as="geometry">
            <mxPoint x="-20" y="530" as="sourcePoint" />
            <mxPoint x="1303.076923076923" y="560" as="targetPoint" />
          </mxGeometry>
        </mxCell>
        <mxCell id="_9m9D5vIo8r4-Emz0mx3-1" value="T1&lt;br&gt;&lt;font color=&quot;#00ffff&quot;&gt;10.0.0.10&lt;/font&gt;" style="whiteSpace=wrap;html=1;aspect=fixed;" vertex="1" parent="1">
          <mxGeometry x="40" y="520" width="80" height="80" as="geometry" />
        </mxCell>
        <mxCell id="_9m9D5vIo8r4-Emz0mx3-2" value="T2&lt;br&gt;&lt;font color=&quot;#0000ff&quot;&gt;10.0.0.20&lt;/font&gt;" style="whiteSpace=wrap;html=1;aspect=fixed;" vertex="1" parent="1">
          <mxGeometry x="320" y="520" width="80" height="80" as="geometry" />
        </mxCell>
        <mxCell id="_9m9D5vIo8r4-Emz0mx3-3" value="T3&lt;br&gt;&lt;font color=&quot;#ff00ff&quot;&gt;10.0.0.30&lt;/font&gt;" style="whiteSpace=wrap;html=1;aspect=fixed;" vertex="1" parent="1">
          <mxGeometry x="600" y="520" width="80" height="80" as="geometry" />
        </mxCell>
        <mxCell id="_9m9D5vIo8r4-Emz0mx3-4" value="T4&lt;br&gt;&lt;font color=&quot;#ff6666&quot;&gt;10.0.0.40&lt;/font&gt;" style="whiteSpace=wrap;html=1;aspect=fixed;" vertex="1" parent="1">
          <mxGeometry x="920" y="520" width="80" height="80" as="geometry" />
        </mxCell>
        <mxCell id="_9m9D5vIo8r4-Emz0mx3-5" value="&lt;font color=&quot;#00ff00&quot;&gt;10.0.0.0&lt;/font&gt;" style="whiteSpace=wrap;html=1;aspect=fixed;" vertex="1" parent="1">
          <mxGeometry x="-240" y="520" width="80" height="80" as="geometry" />
        </mxCell>
        <mxCell id="_9m9D5vIo8r4-Emz0mx3-6" value="barebones ssh:&amp;nbsp;&lt;br&gt;ssh root@10.0.0.10&lt;br&gt;&lt;br&gt;ssh -p 2020 root@10.0.0.10&lt;br&gt;&lt;div&gt;&lt;br&gt;&lt;/div&gt;" style="text;html=1;align=left;verticalAlign=middle;resizable=0;points=[];autosize=1;strokeColor=none;fillColor=none;" vertex="1" parent="1">
          <mxGeometry x="-240" y="110" width="170" height="90" as="geometry" />
        </mxCell>
        <mxCell id="_9m9D5vIo8r4-Emz0mx3-7" value="&lt;font color=&quot;#00ffff&quot;&gt;ssh: 2020&lt;/font&gt;" style="text;html=1;align=center;verticalAlign=middle;resizable=0;points=[];autosize=1;strokeColor=none;fillColor=none;" vertex="1" parent="1">
          <mxGeometry x="30" y="600" width="80" height="30" as="geometry" />
        </mxCell>
        <mxCell id="_9m9D5vIo8r4-Emz0mx3-8" value="&lt;div style=&quot;text-align: left;&quot;&gt;ssh&amp;nbsp;&lt;span style=&quot;background-color: initial;&quot;&gt;&lt;font color=&quot;#00ff00&quot;&gt;-MS /tmp/T1&amp;nbsp;&lt;/font&gt;&lt;/span&gt;&lt;span style=&quot;background-color: initial; color: rgb(0, 255, 255);&quot;&gt;-p 2020 root@10.0.0.10&lt;/span&gt;&lt;/div&gt;&lt;div style=&quot;text-align: left;&quot;&gt;&lt;span style=&quot;background-color: initial;&quot;&gt;NOW no need to authenticate to T1 SO&lt;br&gt;ssh &lt;font color=&quot;#00ff00&quot;&gt;-S /tmp/T1&lt;/font&gt; dummy -O forward &lt;font color=&quot;#00ff00&quot;&gt;-L 1111&lt;/font&gt;:&lt;font color=&quot;#0000ff&quot;&gt;10.0.0.20&lt;/font&gt;:&lt;font color=&quot;#0000ff&quot;&gt;22&lt;/font&gt;&lt;/span&gt;&lt;/div&gt;&lt;div style=&quot;text-align: left;&quot;&gt;&lt;span style=&quot;background-color: initial;&quot;&gt;&lt;br&gt;&lt;/span&gt;&lt;/div&gt;&lt;div style=&quot;text-align: left;&quot;&gt;&lt;span style=&quot;background-color: initial;&quot;&gt;ssh&amp;nbsp;&lt;/span&gt;&lt;font style=&quot;background-color: initial; color: rgb(0, 255, 0); border-color: var(--border-color);&quot; color=&quot;#00ff00&quot;&gt;-MS /tmp/T2&lt;/font&gt;&lt;span style=&quot;background-color: initial; color: rgb(0, 255, 255); border-color: var(--border-color);&quot;&gt;&amp;nbsp;&lt;/span&gt;&lt;span style=&quot;background-color: initial; border-color: var(--border-color);&quot;&gt;&lt;font color=&quot;#00ff00&quot;&gt;-p 1111&lt;/font&gt;&lt;font color=&quot;#0000ff&quot;&gt; root@0.0.0.0&lt;/font&gt;&lt;/span&gt;&lt;/div&gt;&lt;div style=&quot;text-align: left;&quot;&gt;&lt;span style=&quot;background-color: initial; border-color: var(--border-color);&quot;&gt;ssh&amp;nbsp;&lt;font style=&quot;border-color: var(--border-color);&quot; color=&quot;#00ff00&quot;&gt;-S /tmp/T2&lt;/font&gt;&amp;nbsp;dummy -O forward&amp;nbsp;&lt;font style=&quot;border-color: var(--border-color);&quot; color=&quot;#00ff00&quot;&gt;-L 2222&lt;/font&gt;:&lt;font color=&quot;#ff00ff&quot; style=&quot;border-color: var(--border-color);&quot;&gt;10.0.0.30&lt;/font&gt;:&lt;font color=&quot;#ff00ff&quot; style=&quot;border-color: var(--border-color);&quot;&gt;2040&lt;/font&gt;&lt;font color=&quot;#0000ff&quot;&gt;&lt;br&gt;&lt;/font&gt;&lt;/span&gt;&lt;/div&gt;&lt;div style=&quot;text-align: left;&quot;&gt;&lt;span style=&quot;background-color: initial; border-color: var(--border-color);&quot;&gt;&lt;font color=&quot;#ff00ff&quot; style=&quot;border-color: var(--border-color);&quot;&gt;&lt;br&gt;&lt;/font&gt;&lt;/span&gt;&lt;/div&gt;&lt;div style=&quot;text-align: left;&quot;&gt;&lt;span style=&quot;background-color: initial; border-color: var(--border-color);&quot;&gt;&lt;font style=&quot;border-color: var(--border-color);&quot;&gt;&lt;div style=&quot;border-color: var(--border-color);&quot;&gt;ssh&amp;nbsp;&lt;font style=&quot;color: rgb(0, 255, 0); border-color: var(--border-color); background-color: initial;&quot; color=&quot;#00ff00&quot;&gt;-MS /tmp/T3&lt;/font&gt;&lt;span style=&quot;color: rgb(0, 255, 255); border-color: var(--border-color); background-color: initial;&quot;&gt;&amp;nbsp;&lt;/span&gt;&lt;span style=&quot;border-color: var(--border-color); background-color: initial;&quot;&gt;&lt;font color=&quot;#00ff00&quot; style=&quot;border-color: var(--border-color);&quot;&gt;-p 2222&lt;/font&gt;&lt;font style=&quot;color: rgb(0, 0, 0); border-color: var(--border-color);&quot; color=&quot;#0000ff&quot;&gt; &lt;/font&gt;&lt;font color=&quot;#ff00ff&quot; style=&quot;border-color: var(--border-color);&quot;&gt;root@0.0.0.0&lt;/font&gt;&lt;/span&gt;&lt;/div&gt;&lt;div style=&quot;border-color: var(--border-color);&quot;&gt;&lt;span style=&quot;border-color: var(--border-color); background-color: initial;&quot;&gt;ssh&amp;nbsp;&lt;font style=&quot;color: rgb(0, 0, 0); border-color: var(--border-color);&quot; color=&quot;#00ff00&quot;&gt;-&lt;/font&gt;&lt;font style=&quot;border-color: var(--border-color);&quot; color=&quot;#00ff00&quot;&gt;S /tmp/T3&lt;/font&gt;&amp;nbsp;dummy -O forward&amp;nbsp;&lt;font style=&quot;border-color: var(--border-color);&quot; color=&quot;#00ff00&quot;&gt;-L 3333&lt;/font&gt;:&lt;font color=&quot;#ff6666&quot; style=&quot;border-color: var(--border-color);&quot;&gt;10.0.0.40&lt;/font&gt;:&lt;font color=&quot;#ff6666&quot; style=&quot;border-color: var(--border-color);&quot;&gt;2061&lt;/font&gt;&lt;/span&gt;&lt;/div&gt;&lt;div style=&quot;border-color: var(--border-color);&quot;&gt;&lt;span style=&quot;border-color: var(--border-color); background-color: initial;&quot;&gt;&lt;font color=&quot;#ff3399&quot; style=&quot;border-color: var(--border-color);&quot;&gt;&lt;br&gt;&lt;/font&gt;&lt;/span&gt;&lt;/div&gt;&lt;div style=&quot;border-color: var(--border-color);&quot;&gt;telnet 0.0.0.0 3333&lt;br&gt;ssh &lt;font color=&quot;#ff00ff&quot;&gt;-p 2040&lt;/font&gt; &lt;font color=&quot;#ff00ff&quot;&gt;root@10.0.0.30&lt;/font&gt; &lt;font color=&quot;#ff00ff&quot;&gt;-R&lt;/font&gt; &lt;font color=&quot;#ff00ff&quot;&gt;4444&lt;/font&gt;:&lt;font color=&quot;#ff6666&quot;&gt;127.0.0.1&lt;/font&gt;:&lt;font color=&quot;#ff6666&quot;&gt;22&lt;/font&gt;&lt;/div&gt;&lt;div style=&quot;border-color: var(--border-color);&quot;&gt;ssh &lt;font color=&quot;#00ff00&quot;&gt;-p 2222&lt;/font&gt; &lt;font color=&quot;#ff00ff&quot;&gt;root@0.0.0.0&lt;/font&gt; &lt;font color=&quot;#00ff00&quot;&gt;-L 5555&lt;/font&gt;:&lt;font color=&quot;#ff00ff&quot;&gt;0.0.0.0&lt;/font&gt;:&lt;font color=&quot;#ff00ff&quot;&gt;4444&lt;/font&gt;&lt;/div&gt;&lt;div style=&quot;border-color: var(--border-color);&quot;&gt;&lt;div style=&quot;border-color: var(--border-color);&quot;&gt;ssh&amp;nbsp;&lt;font style=&quot;border-color: var(--border-color); color: rgb(0, 255, 0); background-color: initial;&quot; color=&quot;#00ff00&quot;&gt;-MS /tmp/T4&lt;/font&gt;&amp;nbsp;&lt;span style=&quot;border-color: var(--border-color); background-color: initial;&quot;&gt;&lt;font style=&quot;border-color: var(--border-color);&quot; color=&quot;#00ff00&quot;&gt;-p 5555&lt;/font&gt;&lt;font style=&quot;border-color: var(--border-color);&quot;&gt;&amp;nbsp;&lt;/font&gt;&lt;font color=&quot;#ff6666&quot; style=&quot;border-color: var(--border-color);&quot;&gt;root@0.0.0.0&lt;/font&gt;&lt;/span&gt;&lt;/div&gt;&lt;div style=&quot;border-color: var(--border-color);&quot;&gt;&lt;span style=&quot;border-color: var(--border-color); background-color: initial;&quot;&gt;ssh&amp;nbsp;&lt;font style=&quot;border-color: var(--border-color);&quot;&gt;-&lt;/font&gt;&lt;font style=&quot;border-color: var(--border-color);&quot; color=&quot;#00ff00&quot;&gt;S /tmp/T4&lt;/font&gt;&amp;nbsp;dummy -O forward&amp;nbsp;&lt;font style=&quot;border-color: var(--border-color);&quot; color=&quot;#00ff00&quot;&gt;-L 6666&lt;/font&gt;:&lt;font color=&quot;#ff8000&quot;&gt;10.0.0.50&lt;/font&gt;:&lt;font color=&quot;#ff8000&quot;&gt;2080&lt;/font&gt;&lt;/span&gt;&lt;/div&gt;&lt;div style=&quot;border-color: var(--border-color);&quot;&gt;&lt;span style=&quot;border-color: var(--border-color); background-color: initial;&quot;&gt;&lt;font color=&quot;#ff00ff&quot;&gt;&lt;br&gt;&lt;/font&gt;&lt;/span&gt;&lt;/div&gt;&lt;div style=&quot;border-color: var(--border-color);&quot;&gt;&lt;span style=&quot;border-color: var(--border-color); background-color: initial;&quot;&gt;&lt;font color=&quot;#ff00ff&quot;&gt;&lt;br&gt;&lt;/font&gt;&lt;/span&gt;&lt;/div&gt;&lt;/div&gt;&lt;/font&gt;&lt;/span&gt;&lt;/div&gt;" style="text;html=1;align=center;verticalAlign=middle;resizable=0;points=[];autosize=1;strokeColor=none;fillColor=none;" vertex="1" parent="1">
          <mxGeometry x="-255" y="214" width="330" height="260" as="geometry" />
        </mxCell>
        <mxCell id="_9m9D5vIo8r4-Emz0mx3-9" value="/tmp/T1" style="text;html=1;align=center;verticalAlign=middle;resizable=0;points=[];autosize=1;strokeColor=none;fillColor=none;" vertex="1" parent="1">
          <mxGeometry x="-250" y="490" width="60" height="30" as="geometry" />
        </mxCell>
        <mxCell id="_9m9D5vIo8r4-Emz0mx3-11" value="&lt;font color=&quot;#00ff00&quot;&gt;1111&lt;/font&gt; -&amp;gt; &lt;font color=&quot;#0000ff&quot;&gt;22:10.0.0.20&lt;br&gt;&lt;/font&gt;&lt;font color=&quot;#00ff00&quot;&gt;2222&lt;/font&gt; -&amp;gt; &lt;font color=&quot;#ff00ff&quot;&gt;2040&lt;/font&gt;&lt;font style=&quot;border-color: var(--border-color);&quot; color=&quot;#0000ff&quot;&gt;:&lt;/font&gt;&lt;font color=&quot;#ff00ff&quot; style=&quot;border-color: var(--border-color);&quot;&gt;10.0.0.30&lt;br&gt;&lt;/font&gt;&lt;font color=&quot;#00ff00&quot;&gt;3333 &lt;/font&gt;-&amp;gt; &lt;font color=&quot;#ff6666&quot;&gt;2061&lt;/font&gt;:&lt;font color=&quot;#ff6666&quot;&gt;10.0.0.40&lt;br&gt;&lt;/font&gt;&lt;font style=&quot;border-color: var(--border-color);&quot; color=&quot;#00ff00&quot;&gt;5555&amp;nbsp;&lt;/font&gt;-&amp;gt;&amp;nbsp;&lt;font color=&quot;#ff6666&quot; style=&quot;border-color: var(--border-color);&quot;&gt;2060&lt;/font&gt;:&lt;font style=&quot;border-color: var(--border-color);&quot;&gt;&lt;font color=&quot;#ff6666&quot;&gt;10.0.0.40&lt;/font&gt;&lt;br&gt;&lt;font style=&quot;border-color: var(--border-color);&quot; color=&quot;#00ff00&quot;&gt;6666&lt;font color=&quot;#ff6666&quot;&gt;&amp;nbsp;&lt;/font&gt;&lt;/font&gt;-&amp;gt;&lt;font color=&quot;#ff6666&quot;&gt;&amp;nbsp;&lt;/font&gt;&lt;font color=&quot;#ff8000&quot; style=&quot;border-color: var(--border-color);&quot;&gt;2061&lt;/font&gt;&lt;span style=&quot;color: rgb(0, 0, 0);&quot;&gt;:&lt;/span&gt;&lt;font color=&quot;#ff8000&quot; style=&quot;border-color: var(--border-color);&quot;&gt;10.0.0.50&lt;/font&gt;&lt;br&gt;&lt;/font&gt;&lt;div&gt;&lt;br&gt;&lt;/div&gt;" style="text;html=1;align=left;verticalAlign=middle;resizable=0;points=[];autosize=1;strokeColor=none;fillColor=none;" vertex="1" parent="1">
          <mxGeometry x="-240" y="601" width="150" height="100" as="geometry" />
        </mxCell>
        <mxCell id="_9m9D5vIo8r4-Emz0mx3-13" value="&lt;font color=&quot;#ff00ff&quot;&gt;ssh: 2040&lt;br&gt;4444&amp;nbsp;&lt;/font&gt;-&amp;gt;&amp;nbsp;&lt;font style=&quot;border-color: var(--border-color);&quot; color=&quot;#ff3399&quot;&gt;2060&lt;/font&gt;:&lt;font style=&quot;border-color: var(--border-color);&quot; color=&quot;#ff3399&quot;&gt;10.0.0.40&lt;/font&gt;&lt;font color=&quot;#ff00ff&quot;&gt;&lt;br&gt;&lt;/font&gt;" style="text;html=1;align=left;verticalAlign=middle;resizable=0;points=[];autosize=1;strokeColor=none;fillColor=none;" vertex="1" parent="1">
          <mxGeometry x="600" y="600" width="150" height="40" as="geometry" />
        </mxCell>
        <mxCell id="_9m9D5vIo8r4-Emz0mx3-14" value="T5&lt;br&gt;&lt;font color=&quot;#ff6666&quot;&gt;&amp;nbsp;&lt;/font&gt;&lt;font color=&quot;#ff8000&quot;&gt;10.0.0.50&lt;/font&gt;" style="whiteSpace=wrap;html=1;aspect=fixed;" vertex="1" parent="1">
          <mxGeometry x="1200" y="520" width="80" height="80" as="geometry" />
        </mxCell>
        <mxCell id="_9m9D5vIo8r4-Emz0mx3-16" value="&lt;font color=&quot;#ff6666&quot;&gt;ssh: 2060 filtered&lt;br&gt;telnet: 2061&lt;/font&gt;" style="text;html=1;align=left;verticalAlign=middle;resizable=0;points=[];autosize=1;strokeColor=none;fillColor=none;" vertex="1" parent="1">
          <mxGeometry x="920" y="601" width="110" height="40" as="geometry" />
        </mxCell>
        <mxCell id="_9m9D5vIo8r4-Emz0mx3-17" value="&lt;font color=&quot;#ff8000&quot;&gt;ssh: 2080&lt;/font&gt;" style="text;html=1;align=left;verticalAlign=middle;resizable=0;points=[];autosize=1;strokeColor=none;fillColor=none;" vertex="1" parent="1">
          <mxGeometry x="1200" y="600" width="80" height="30" as="geometry" />
        </mxCell>
      </root>
    </mxGraphModel>
  </diagram>
</mxfile>
